<?xml version="1.0" encoding="UTF-8"?>
<svg id="Layer_1" data-name="Layer 1" xmlns="http://www.w3.org/2000/svg" viewBox="65 320 470 200">
  <defs>
    <style>
      .cls-1 {
        fill: #161616;
      }
    </style>
  </defs>
  <path class="cls-1" d="M77.22,492.42c0-4.56.73-12.01.73-31.76v-8.03c0-6.94-2.67-3.47-6.18.2-1.69,1.77-2.2.59-2.2-1.36,0-1.95.13-5.24.13-8.17,0-2.6-.13-4.53-.13-7.67,0-2.28,1.16-4.93,2.66-6.49,2.87-2.98,5.85-5.64,8.73-8.41,2.81-2.72,6.78-6.9,8.85-8.74,2.28-2.03,2.7-1.07,2.7.66-.05,2.83-.09,5.65-.14,8.48-.07,4.07.35,6.1.35,8.38,0,2.39-1.6,4.75-2.91,5.92-3.18,2.83-5.95,5.77-5.95,10.21,0,3.11,0,6.22,0,9.33,0,19.75.95,25.59.95,30.15,0,4.89-1.23,8.94-3.85,11.46-2.28,2.2-3.74.73-3.74-4.16Z"/>
  <path class="cls-1" d="M95.37,476.05c0-1.09.7-26.31.7-35.32,0-2.39-.35-18.58-.35-23.47,0-5.09-.36-9.38,3.53-12.6,2.84-2.32,3.13-.47,3.13,3.21,0,1.52-.29,5.76-.29,8.69,0,.54.21.37.43-.02,1.36-2.17,3.71-6.01,7.86-9.13,3.64-2.72,5.57-2.13,7.41-2.14.22-.16.3-.32.3-.75v-7.7c0-2.49.29-6.84,3.27-8.89,4.56-3.09,4.05,2.28,4.04,8.35,0,3.26-.6,17.44-.6,26.11,0,7.16.23,12.44.38,19.28.23,3.97.23,8.1.23,12.11,0,5.1-1.06,7.85-3.75,9.68-2.91,1.99-4.09,1.1-4.09-3.13,0-6.19.44-11.27.44-18.11.01-9.52-1.22-16.16-8.07-11.05-5.3,4.01-7.63,9.63-7.64,19.71,0,12.37.64,14.24.64,18.47,0,5.65-1.08,8.77-3.7,10.92-2.76,2.28-3.87,1.07-3.88-4.24Z"/>
  <path class="cls-1" d="M128.57,444.03c0-1.73.68-15.19.68-20.08,0-16.5-.23-23.29-.23-33.71,0-5.63,2.63-9.12,8.78-12.8,2.7-1.6,4.17-2.12,6.65-3.53,4.12-2.33,9.25-5.66,9.25,1.3,0,3.04-1.27,5.74-5.11,7.81-2.04,1.1-5.55,1.43-8.25,3.01-2.94,1.71-4.69,5.62-4.69,9.74,0,5.43,2.29,4.67,6.16,2.44,3.25-1.88,7.08-4.63,10.08-6.2,2.05-1.08,3.55-.21,3.55,2.61,0,2.83-.48,5.43-4.81,7.72-2.28,1.21-5.95,2.59-6.96,3.17-4.51,2.54-9.18,6.16-9.18,14.41,0,5.87,2.28,7.78,7.7,4.66,7.62-4.31,7.89-10.1,10.4-11.45,2.13-1.11,3.16,2.38,3.16,10.74.02,15.12-3.29,21.5-13.09,27.03-9.07,5.2-14.09,4.13-14.1-6.85Z"/>
  <path class="cls-1" d="M171.46,428.02c0-1.3.65-12.11.65-15.91,0-9.11.08-15.55.08-22.61,0-7.05-.08-14.39-.49-25.83-.08-2.24,1.46-4.33,3.32-5.13,3.57-1.52,7.25-2.68,10.79-4.03,3.45-1.33,8.25-3.59,10.74-4.43,2.74-.93,3.25.22,3.24,1.95-.06,2.4-.11,4.81-.17,7.21-.08,4.04.25,7.08.25,9.36,0,2.39-1.75,3.94-3.33,4.48-1.16.4-3.15.98-5.39,1.78-5.21,1.86-11.67,5.13-11.67,9.37,0,3.26,1.79,3.48,6.39,1.71,3.45-1.32,7.25-3.34,10.41-4.42,2.16-.74,3.74.37,3.74,3.19,0,2.83-.67,5.41-5.07,6.92-2.57.89-6.04,1.51-7.11,1.91-3.22,1.19-8.29,3.88-8.28,11.37,0,14.21,1.06,15.3,1.06,19.21,0,4.88-1.48,8.39-4.65,9.73-2.76,1.17-4.54-.97-4.54-5.85Z"/>
  <path class="cls-1" d="M202.72,416.41c0-4.23.84-11.33.84-30.43v-15.84c0-14.76,8.02-25.78,16.49-27.92,7.36-1.93,17.02,2.21,17.02,18.5,0,3.36-.43,9.2-.43,16.8,0,19.1.77,25.89.77,30.01,0,5.1-1.2,7.82-4.27,8.46-3.07.65-4.18-1.69-4.18-6.69,0-4.23.77-11.24.77-30.33,0-9.32-3.07-13.04-9.68-11.36-6.6,1.7-10.04,7.42-10.04,16.42,0,6.4.08,9.2.25,11.65,0,1.19.59,1.24,1.26.07,3.19-3.64,8.77-7.61,11.49-8.26,2.88-.7,4.42.69,4.42,4.05,0,2.49-.77,4.08-2.21,4.42-5.44,1.29-9.99,4.81-12.85,9.85q-1.18,1.75-1.18,8.04c0,5.1-1.43,8-4.28,8.86-2.93.89-4.18-1.3-4.18-6.3Z"/>
  <path class="cls-1" d="M241.1,406.84c0-4.45.43-11.04.43-30.13,0-18.23-.43-23.47-.43-29.11,0-6.07.51-9.33,4.2-9.96,2.75-.46,4.3,1.04,4.3,7.66,0,4.88-.52,9.95-.52,30.14,0,19.1.95,25.46.95,29.91,0,4.78-1.64,7.84-4.73,8.36-3.09.53-4.2-2.08-4.2-6.85Z"/>
  <path class="cls-1" d="M253.64,406.86c0-5.64.69-8.78.86-19.33.09-2.62.26-11.97.26-20.33,0-5.86-.52-17.94-.52-21.95,0-8.24,2.06-9.22,7.51-9.86,1.55-.21,8.73-.81,10.21-.9,10.4-.84,16.14,7.25,16.13,22.19,0,11.07-3.13,16.59-6.25,20.66-.78,1.02-.26,2.62,0,3.58.69,2.45,4.77,19.21,5.21,22.78.35,3.03-.52,5.54-3.73,5.69-5.12.25-5.55-8.58-5.99-11.82-.35-2.8-1.39-10.97-1.99-13.97-.26-1.18-.43-2.25-1.21-2.73-1.3-.77-2.34-.25-4.76-.04-3.98.36-7.61-3.66-5.97-7.97.86-2.27,2.68-1.91,3.54-1.46,1.9.89,4.24,1.23,5.45,1.14,4.24-.34,5.55-4.3,5.55-8.43,0-5.1-3.82-6.18-8.58-5.74-5.54.51-8.13,7.26-8.22,12.14-.26,4.8,0,8.68,0,18.01,0,5.64.6,12.3.6,17.73,0,3.69-2.16,5.35-3.97,5.58-2.42.31-4.14-1.07-4.14-4.97Z"/>
  <path class="cls-1" d="M290.62,370.39c0-36.84,12.59-37.51,18.15-37.23,5.82.18,11.89,4.43,11.97,9.86,0,3.04-1.73,4.21-3.38,4.22-2,.11-3.04-3.25-9.11-3.47-8.25-.24-10.68,14.29-10.68,22.3,0,6.98.26,16.73,9.99,16.96,5.73.18,9.11-2.41,9.11-10.77,0-12.38-7.03-7.23-11.72-7.31-2.17-.05-3.99-1.04-3.99-3.75,0-2.7.69-6.32,6.51-6.16,3.56.11,7.12.27,10.67.5,2.43.15,4.42,2.59,4.42,6.82,0,.98-.26,6.49-.17,12.14.17,5.66.61,8.84.61,12.85,0,17.47-7.54,23.02-15.79,22.8-9.2-.27-16.59-3.4-16.59-39.76Z"/>
  <path class="cls-1" d="M326.55,405.02c0-5.64.69-8.62.87-19.13.09-2.6.26-11.91.26-20.26,0-5.86-.52-18.06-.52-22.07,0-8.24,2.08-8.74,7.52-8.11,1.56.15,8.71,1.22,10.17,1.47,10.33,1.58,15.95,10.98,15.95,25.93,0,11.07-3.07,15.86-6.16,19.21-.77.83-.26,2.56,0,3.58.69,2.61,4.71,20.31,5.14,23.99.34,3.11-.51,5.42-3.68,4.82-5.05-.93-5.49-9.87-5.92-13.2-.35-2.88-1.38-11.3-1.98-14.43-.26-1.24-.43-2.35-1.2-3.01-1.29-1.07-2.32-.8-4.73-1.14-3.96-.56-7.59-5.43-5.95-9.36.86-2.07,2.68-1.29,3.54-.63,1.9,1.34,4.22,2.22,5.43,2.4,4.22.65,5.5-3.02,5.5-7.15,0-5.1-3.78-7.06-8.51-7.73-5.51-.77-8.11,5.37-8.2,10.23-.26,4.74,0,8.68,0,18.01,0,5.64.6,12.44.6,17.87,0,3.69-2.16,4.85-3.98,4.66-2.42-.25-4.15-2.03-4.15-5.94Z"/>
  <path class="cls-1" d="M362.86,377.04c0-22.63,5.49-35.99,17.4-32.82,10.63,2.9,16.93,16.63,16.93,43.84,0,22.72-5.05,35.83-16.6,32.64-10.72-2.9-17.74-17.16-17.74-43.66ZM389.26,377.19c0-13.01-3.77-22.21-9-23.63-5.57-1.5-9.23,6.77-9.23,18.81,0,12.16,3.66,20.59,9.57,22.19,5.65,1.54,8.66-4.45,8.66-17.37Z"/>
  <path class="cls-1" d="M400.11,396.86c0-4.01.25-8.38.25-11.96v-27.89c0-4.23.58-6.1,3.65-5.01,1.9.68,3.22,2.59,3.22,6.38,0,11.61-.33,17.57-.33,28.53,0,13.68,3.64,17.36,9.76,19.85,8.64,3.58,9.81-1.84,9.82-15.54,0-6.19-.32-14.47-.56-23.47,0-4.99.97-6.52,3.62-5.3,2.01.93,3.53,3.61,3.53,7.95,0,4.99-.32,16.13-.32,21.33,0,14.87.32,17.3.32,20.99-.01,17.08-4.84,25.32-15.83,20.76-13.74-5.52-17.14-20.37-17.12-36.61Z"/>
  <path class="cls-1" d="M436.42,433.77c0-4.45.56-10.68.56-29.78,0-18.23-.56-23.71-.56-28.49,0-7.81,1.27-9.47,2.54-8.83,3.8,1.93,3.56,5.62,5.06,6.4,1.02.54,5.19-1.49,9.61,1.05,8.29,4.78,11.73,13.61,11.75,29.21,0,6.18-.31,14.67-.31,26.06,0,5.21.31,16.8.31,21.9,0,4.34-1.52,5.33-3.51,4.11-2.52-1.55-3.45-4.04-3.45-9.03.23-8.87.77-16.9.77-23.08,0-13.76-1.13-20.6-7.66-24.31-6.94-3.86-7.92,7.44-7.91,13.28,0,19.1.95,21.22.95,25.67,0,4.56-1.02,7.04-4.1,5.46-3.09-1.68-4.05-4.85-4.05-9.62Z"/>
  <path class="cls-1" d="M468.64,449.7v-50.57c-.01-8.98-1.33-16.14,6.45-10.88,15.68,10.89,22.54,34.3,22.59,57.42-.06,24.21-3.71,31.81-19.39,20.53-7.04-4.93-9.65-6.51-9.64-16.51ZM490.32,434.24c0-11.05-4.36-28.11-11.23-32.99-4.22-2.97-4.53-.11-4.45,5.57.07,7.36.15,14.71.22,22.07.07,8.53,1.43,11.46,6.59,15.17,5.22,3.78,8.87.49,8.87-9.82Z"/>
  <path class="cls-1" d="M499.23,460c0-3.9.5-13.17,3.78-10.34,3.79,3.39.07,11.39,9.61,20.19,3.18,3,5.43,2.31,5.43-3.33,0-2.39-.8-6.11-2.4-9.51-7.78-15.99-13.98-21.94-13.97-33.56,0-9.22,5.75-10.41,11.62-4.83,2.63,2.49,5.43,6.87,7.6,12.01,1.25,2.9,1.71,5.33,1.71,6.95,0,2.39-1.44,3.29-3.36,1.37-2.66-2.62-1.64-6.67-6.43-11.23-3.18-2.99-4.43-1.92-4.43,1.65,0,3.91,1.92,7.28,3.48,10.26,3.67,6.46,7.59,12.29,10.34,19.68,3.14,7.9,4.23,15.71,4.23,22.21-.01,16.84-4.79,21.99-13.01,14.16-8.59-8.12-14.22-21.45-14.2-35.69Z"/>
</svg>